{
  "accessors": [
    {
      "bufferView": 2,
      "componentType": 5126,
      "count": 580,
      "max": [
        -0.5581349730491638,
        0.29874199628829956,
        2.0201199054718018
      ],
      "min": [
        -1.3286230564117432,
        -0.5700049996376038,
        0.44460201263427734
      ],
      "type": "VEC3"
    },
    {
      "bufferView": 2,
      "byteOffset": 6960,
      "componentType": 5126,
      "count": 580,
      "max": [
        0.9169820547103882,
        0.9549859762191772,
        0.8768064975738525
      ],
      "min": [
        -0.954220712184906,
        -0.9913826584815979,
        -0.872885525226593
      ],
      "type": "VEC3"
    },
    {
      "bufferView": 1,
      "componentType": 5126,
      "count": 580,
      "max": [
        0.9594839811325073,
        0.9459850192070007
      ],
      "min": [
        0.0035490000154823065,
        0.003636999987065792
      ],
      "type": "VEC2"
    },
    {
      "bufferView": 0,
      "componentType": 5125,
      "count": 1056,
      "type": "SCALAR"
    },
    {
      "bufferView": 2,
      "byteOffset": 13920,
      "componentType": 5126,
      "count": 318,
      "max": [
        1.4188120365142822,
        0.7910469770431519,
        2.7804689407348633
      ],
      "min": [
        0.6588969826698303,
        -0.06459199637174606,
        0.4247030019760132
      ],
      "type": "VEC3"
    },
    {
      "bufferView": 2,
      "byteOffset": 17736,
      "componentType": 5126,
      "count": 318,
      "max": [
        0.9660511612892151,
        0.9876284003257751,
        0.8961151242256165
      ],
      "min": [
        -0.9943567514419556,
        -0.991841733455658,
        -0.9843734502792358
      ],
      "type": "VEC3"
    },
    {
      "bufferView": 1,
      "byteOffset": 4640,
      "componentType": 5126,
      "count": 318,
      "max": [
        0.6461650133132935,
        0.86148601770401
      ],
      "min": [
        0.0035929998848587275,
        0.0034290000330656767
      ],
      "type": "VEC2"
    },
    {
      "bufferView": 0,
      "byteOffset": 4224,
      "componentType": 5125,
      "count": 564,
      "type": "SCALAR"
    },
    {
      "bufferView": 2,
      "byteOffset": 21552,
      "componentType": 5126,
      "count": 4904,
      "max": [
        0.9557719826698303,
        0.7411829829216003,
        2.9348690509796143
      ],
      "min": [
        -0.8750370144844055,
        -0.1329129934310913,
        -0.2543950080871582
      ],
      "type": "VEC3"
    },
    {
      "bufferView": 2,
      "byteOffset": 80400,
      "componentType": 5126,
      "count": 4904,
      "max": [
        1.0,
        0.9999990463256836,
        0.9998325705528259
      ],
      "min": [
        -1.0,
        -0.9999850988388062,
        -0.9998325705528259
      ],
      "type": "VEC3"
    },
    {
      "bufferView": 1,
      "byteOffset": 7184,
      "componentType": 5126,
      "count": 4904,
      "max": [
        0.997530996799469,
        0.9959449768066406
      ],
      "min": [
        0.003082999959588051,
        0.0034409998916089535
      ],
      "type": "VEC2"
    },
    {
      "bufferView": 0,
      "byteOffset": 6480,
      "componentType": 5125,
      "count": 9576,
      "type": "SCALAR"
    },
    {
      "bufferView": 2,
      "byteOffset": 139248,
      "componentType": 5126,
      "count": 2770,
      "max": [
        1.2873990535736084,
        2.2718889713287354,
        3.0257461071014404
      ],
      "min": [
        -1.3568869829177856,
        0.08175799995660782,
        0.743798017501831
      ],
      "type": "VEC3"
    },
    {
      "bufferView": 2,
      "byteOffset": 172488,
      "componentType": 5126,
      "count": 2770,
      "max": [
        1.0,
        0.9998905658721924,
        0.9998325705528259
      ],
      "min": [
        -1.0,
        -0.9998860359191895,
        -0.9998325705528259
      ],
      "type": "VEC3"
    },
    {
      "bufferView": 1,
      "byteOffset": 46416,
      "componentType": 5126,
      "count": 2770,
      "max": [
        0.9968739748001099,
        0.9961829781532288
      ],
      "min": [
        0.01449500024318695,
        0.0036009999457746744
      ],
      "type": "VEC2"
    },
    {
      "bufferView": 0,
      "byteOffset": 44784,
      "componentType": 5125,
      "count": 5118,
      "type": "SCALAR"
    }
  ],
  "asset": {
    "extras": {
      "author": "JUST GAME (https://sketchfab.com/JUSTGAME)",
      "license": "CC-BY-4.0 (http://creativecommons.org/licenses/by/4.0/)",
      "source": "https://sketchfab.com/3d-models/rx-93-2-hi-nu-10b65578958d4abdbb0e59b7badf05a3",
      "title": "RX-93-2 Hi-Nu"
    },
    "generator": "Sketchfab-16.62.0",
    "version": "2.0"
  },
  "bufferViews": [
    {
      "buffer": 0,
      "byteLength": 65256,
      "name": "floatBufferViews",
      "target": 34963
    },
    {
      "buffer": 0,
      "byteLength": 68576,
      "byteOffset": 65256,
      "byteStride": 8,
      "name": "floatBufferViews",
      "target": 34962
    },
    {
      "buffer": 0,
      "byteLength": 205728,
      "byteOffset": 133832,
      "byteStride": 12,
      "name": "floatBufferViews",
      "target": 34962
    }
  ],
  "buffers": [
    {
      "byteLength": 339560,
      "uri": "scene.bin"
    }
  ],
  "images": [
    {
      "uri": "textures/mat_15.001_baseColor.png"
    },
    {
      "uri": "textures/mat_18_baseColor.png"
    }
  ],
  "materials": [
    {
      "doubleSided": true,
      "name": "mat_15.001",
      "pbrMetallicRoughness": {
        "baseColorTexture": {
          "index": 0
        },
        "metallicFactor": 0.0
      }
    },
    {
      "doubleSided": true,
      "name": "mat_15.002",
      "pbrMetallicRoughness": {
        "baseColorTexture": {
          "index": 0
        },
        "metallicFactor": 0.0
      }
    },
    {
      "doubleSided": true,
      "name": "mat_18",
      "pbrMetallicRoughness": {
        "baseColorTexture": {
          "index": 1
        },
        "metallicFactor": 0.0
      }
    },
    {
      "doubleSided": true,
      "name": "mat_19",
      "pbrMetallicRoughness": {
        "baseColorTexture": {
          "index": 0
        },
        "metallicFactor": 0.0
      }
    }
  ],
  "meshes": [
    {
      "name": "Object_0",
      "primitives": [
        {
          "attributes": {
            "NORMAL": 1,
            "POSITION": 0,
            "TEXCOORD_0": 2
          },
          "indices": 3,
          "material": 0,
          "mode": 4
        }
      ]
    },
    {
      "name": "Object_1",
      "primitives": [
        {
          "attributes": {
            "NORMAL": 5,
            "POSITION": 4,
            "TEXCOORD_0": 6
          },
          "indices": 7,
          "material": 1,
          "mode": 4
        }
      ]
    },
    {
      "name": "Object_2",
      "primitives": [
        {
          "attributes": {
            "NORMAL": 9,
            "POSITION": 8,
            "TEXCOORD_0": 10
          },
          "indices": 11,
          "material": 2,
          "mode": 4
        }
      ]
    },
    {
      "name": "Object_3",
      "primitives": [
        {
          "attributes": {
            "NORMAL": 13,
            "POSITION": 12,
            "TEXCOORD_0": 14
          },
          "indices": 15,
          "material": 3,
          "mode": 4
        }
      ]
    }
  ],
  "nodes": [
    {
      "children": [
        1
      ],
      "matrix": [
        1.0,
        0.0,
        0.0,
        0.0,
        0.0,
        2.220446049250313e-16,
        -1.0,
        0.0,
        0.0,
        1.0,
        2.220446049250313e-16,
        0.0,
        0.0,
        0.0,
        0.0,
        1.0
      ],
      "name": "Sketchfab_model"
    },
    {
      "children": [
        2,
        3,
        4,
        5
      ],
      "name": "untitled.obj.cleaner.materialmerger.gles"
    },
    {
      "mesh": 0,
      "name": "Object_2"
    },
    {
      "mesh": 1,
      "name": "Object_3"
    },
    {
      "mesh": 2,
      "name": "Object_4"
    },
    {
      "mesh": 3,
      "name": "Object_5"
    }
  ],
  "samplers": [
    {
      "magFilter": 9729,
      "minFilter": 9987,
      "wrapS": 10497,
      "wrapT": 10497
    }
  ],
  "scene": 0,
  "scenes": [
    {
      "name": "Sketchfab_Scene",
      "nodes": [
        0
      ]
    }
  ],
  "textures": [
    {
      "sampler": 0,
      "source": 0
    },
    {
      "sampler": 0,
      "source": 1
    }
  ]
}
