{
  "accessors": [
    {
      "bufferView": 2,
      "componentType": 5126,
      "count": 209,
      "max": [
        0.8086490035057068,
        -0.452129989862442,
        1.8131320476531982
      ],
      "min": [
        0.6307169795036316,
        -0.6216350197792053,
        1.5634410381317139
      ],
      "type": "VEC3"
    },
    {
      "bufferView": 2,
      "byteOffset": 2508,
      "componentType": 5126,
      "count": 209,
      "max": [
        0.969698965549469,
        0.9983516335487366,
        0.9883905649185181
      ],
      "min": [
        -0.9686930775642395,
        -0.9794307947158813,
        -0.9841683506965637
      ],
      "type": "VEC3"
    },
    {
      "bufferView": 1,
      "componentType": 5126,
      "count": 209,
      "max": [
        1.3345489501953125,
        0.9956309795379639
      ],
      "min": [
        0.06220199912786484,
        0.6889169812202454
      ],
      "type": "VEC2"
    },
    {
      "bufferView": 0,
      "componentType": 5125,
      "count": 432,
      "type": "SCALAR"
    },
    {
      "bufferView": 2,
      "byteOffset": 5016,
      "componentType": 5126,
      "count": 5428,
      "max": [
        0.8855389952659607,
        -0.09063900262117386,
        3.118119955062866
      ],
      "min": [
        -0.7805520296096802,
        -1.025338053703308,
        0.026374999433755875
      ],
      "type": "VEC3"
    },
    {
      "bufferView": 2,
      "byteOffset": 70152,
      "componentType": 5126,
      "count": 5428,
      "max": [
        1.0,
        0.9998518228530884,
        0.9995978474617004
      ],
      "min": [
        -1.0,
        -0.9991092085838318,
        -0.9995978474617004
      ],
      "type": "VEC3"
    },
    {
      "bufferView": 1,
      "byteOffset": 1672,
      "componentType": 5126,
      "count": 5428,
      "max": [
        1.9928770065307617,
        1.2367370128631592
      ],
      "min": [
        -0.9185609817504883,
        0.002486000070348382
      ],
      "type": "VEC2"
    },
    {
      "bufferView": 0,
      "byteOffset": 1728,
      "componentType": 5125,
      "count": 12351,
      "type": "SCALAR"
    },
    {
      "bufferView": 2,
      "byteOffset": 135288,
      "componentType": 5126,
      "count": 1310,
      "max": [
        1.0010199546813965,
        -0.027765000239014626,
        3.116666078567505
      ],
      "min": [
        -0.845907986164093,
        -1.141829013824463,
        0.7669090032577515
      ],
      "type": "VEC3"
    },
    {
      "bufferView": 2,
      "byteOffset": 151008,
      "componentType": 5126,
      "count": 1310,
      "max": [
        1.0,
        0.9985626339912415,
        0.9989187121391296
      ],
      "min": [
        -1.0,
        -0.9987720251083374,
        -0.9999294281005859
      ],
      "type": "VEC3"
    },
    {
      "bufferView": 1,
      "byteOffset": 45096,
      "componentType": 5126,
      "count": 1310,
      "max": [
        1.9863380193710327,
        0.9967659711837769
      ],
      "min": [
        0.011738000437617302,
        0.0037609999999403954
      ],
      "type": "VEC2"
    },
    {
      "bufferView": 0,
      "byteOffset": 51132,
      "componentType": 5125,
      "count": 2802,
      "type": "SCALAR"
    }
  ],
  "asset": {
    "extras": {
      "author": "JUST GAME (https://sketchfab.com/JUSTGAME)",
      "license": "CC-BY-4.0 (http://creativecommons.org/licenses/by/4.0/)",
      "source": "https://sketchfab.com/3d-models/rx-78nt-1-gundam-alex-efa0c11155564fa883acc6c0fb50eceb",
      "title": "RX-78NT-1 Gundam Alex"
    },
    "generator": "Sketchfab-16.62.0",
    "version": "2.0"
  },
  "bufferViews": [
    {
      "buffer": 0,
      "byteLength": 62340,
      "name": "floatBufferViews",
      "target": 34963
    },
    {
      "buffer": 0,
      "byteLength": 55576,
      "byteOffset": 62340,
      "byteStride": 8,
      "name": "floatBufferViews",
      "target": 34962
    },
    {
      "buffer": 0,
      "byteLength": 166728,
      "byteOffset": 117916,
      "byteStride": 12,
      "name": "floatBufferViews",
      "target": 34962
    }
  ],
  "buffers": [
    {
      "byteLength": 284644,
      "uri": "scene.bin"
    }
  ],
  "images": [
    {
      "uri": "textures/mat_28_baseColor.png"
    },
    {
      "uri": "textures/mat_29_baseColor.png"
    },
    {
      "uri": "textures/mat_5.002_baseColor.png"
    }
  ],
  "materials": [
    {
      "doubleSided": true,
      "name": "mat_28",
      "pbrMetallicRoughness": {
        "baseColorTexture": {
          "index": 0
        },
        "metallicFactor": 0.0
      }
    },
    {
      "doubleSided": true,
      "name": "mat_29",
      "pbrMetallicRoughness": {
        "baseColorTexture": {
          "index": 1
        },
        "metallicFactor": 0.0
      }
    },
    {
      "doubleSided": true,
      "name": "mat_5.002",
      "pbrMetallicRoughness": {
        "baseColorTexture": {
          "index": 2
        },
        "metallicFactor": 0.0
      }
    }
  ],
  "meshes": [
    {
      "name": "Object_0",
      "primitives": [
        {
          "attributes": {
            "NORMAL": 1,
            "POSITION": 0,
            "TEXCOORD_0": 2
          },
          "indices": 3,
          "material": 0,
          "mode": 4
        }
      ]
    },
    {
      "name": "Object_1",
      "primitives": [
        {
          "attributes": {
            "NORMAL": 5,
            "POSITION": 4,
            "TEXCOORD_0": 6
          },
          "indices": 7,
          "material": 1,
          "mode": 4
        }
      ]
    },
    {
      "name": "Object_2",
      "primitives": [
        {
          "attributes": {
            "NORMAL": 9,
            "POSITION": 8,
            "TEXCOORD_0": 10
          },
          "indices": 11,
          "material": 2,
          "mode": 4
        }
      ]
    }
  ],
  "nodes": [
    {
      "children": [
        1
      ],
      "matrix": [
        1.0,
        0.0,
        0.0,
        0.0,
        0.0,
        2.220446049250313e-16,
        -1.0,
        0.0,
        0.0,
        1.0,
        2.220446049250313e-16,
        0.0,
        0.0,
        0.0,
        0.0,
        1.0
      ],
      "name": "Sketchfab_model"
    },
    {
      "children": [
        2,
        3,
        4
      ],
      "name": "untitled.obj.cleaner.materialmerger.gles"
    },
    {
      "mesh": 0,
      "name": "Object_2"
    },
    {
      "mesh": 1,
      "name": "Object_3"
    },
    {
      "mesh": 2,
      "name": "Object_4"
    }
  ],
  "samplers": [
    {
      "magFilter": 9729,
      "minFilter": 9987,
      "wrapS": 10497,
      "wrapT": 10497
    }
  ],
  "scene": 0,
  "scenes": [
    {
      "name": "Sketchfab_Scene",
      "nodes": [
        0
      ]
    }
  ],
  "textures": [
    {
      "sampler": 0,
      "source": 0
    },
    {
      "sampler": 0,
      "source": 1
    },
    {
      "sampler": 0,
      "source": 2
    }
  ]
}
