{
  "accessors": [
    {
      "bufferView": 2,
      "componentType": 5126,
      "count": 4771,
      "max": [
        0.9091879725456238,
        0.18664400279521942,
        2.8598389625549316
      ],
      "min": [
        -0.829712986946106,
        -0.494255006313324,
        0.9963600039482117
      ],
      "type": "VEC3"
    },
    {
      "bufferView": 2,
      "byteOffset": 57252,
      "componentType": 5126,
      "count": 4771,
      "max": [
        1.0,
        1.0,
        1.0
      ],
      "min": [
        -1.0,
        -1.0,
        -1.0
      ],
      "type": "VEC3"
    },
    {
      "bufferView": 1,
      "componentType": 5126,
      "count": 4771,
      "max": [
        0.9984340071678162,
        0.9975939989089966
      ],
      "min": [
        0.0014309999532997608,
        0.0015660000499337912
      ],
      "type": "VEC2"
    },
    {
      "bufferView": 0,
      "componentType": 5125,
      "count": 10215,
      "type": "SCALAR"
    },
    {
      "bufferView": 2,
      "byteOffset": 114504,
      "componentType": 5126,
      "count": 3709,
      "max": [
        1.0873390436172485,
        0.6224750280380249,
        2.5778799057006836
      ],
      "min": [
        -1.0078309774398804,
        -0.6179019808769226,
        -0.13496699929237366
      ],
      "type": "VEC3"
    },
    {
      "bufferView": 2,
      "byteOffset": 159012,
      "componentType": 5126,
      "count": 3709,
      "max": [
        1.0,
        0.9999456405639648,
        0.9995757937431335
      ],
      "min": [
        -1.0,
        -0.9993041753768921,
        -0.9995785355567932
      ],
      "type": "VEC3"
    },
    {
      "bufferView": 1,
      "byteOffset": 38168,
      "componentType": 5126,
      "count": 3709,
      "max": [
        0.9973549842834473,
        0.9979439973831177
      ],
      "min": [
        0.002056000055745244,
        0.0024240000639110804
      ],
      "type": "VEC2"
    },
    {
      "bufferView": 0,
      "byteOffset": 40860,
      "componentType": 5125,
      "count": 8376,
      "type": "SCALAR"
    }
  ],
  "asset": {
    "extras": {
      "author": "JUST GAME (https://sketchfab.com/JUSTGAME)",
      "license": "CC-BY-4.0 (http://creativecommons.org/licenses/by/4.0/)",
      "source": "https://sketchfab.com/3d-models/gf13-017njii-god-gundam-4ace06209e3a4517ae60e34f6e0c01ff",
      "title": "GF13-017NJII God Gundam"
    },
    "generator": "Sketchfab-16.62.0",
    "version": "2.0"
  },
  "bufferViews": [
    {
      "buffer": 0,
      "byteLength": 74364,
      "name": "floatBufferViews",
      "target": 34963
    },
    {
      "buffer": 0,
      "byteLength": 67840,
      "byteOffset": 74364,
      "byteStride": 8,
      "name": "floatBufferViews",
      "target": 34962
    },
    {
      "buffer": 0,
      "byteLength": 203520,
      "byteOffset": 142204,
      "byteStride": 12,
      "name": "floatBufferViews",
      "target": 34962
    }
  ],
  "buffers": [
    {
      "byteLength": 345724,
      "uri": "scene.bin"
    }
  ],
  "images": [
    {
      "uri": "textures/mat_11_baseColor.png"
    },
    {
      "uri": "textures/mat_13_baseColor.png"
    }
  ],
  "materials": [
    {
      "doubleSided": true,
      "name": "mat_11",
      "pbrMetallicRoughness": {
        "baseColorTexture": {
          "index": 0
        },
        "metallicFactor": 0.0
      }
    },
    {
      "doubleSided": true,
      "name": "mat_13",
      "pbrMetallicRoughness": {
        "baseColorTexture": {
          "index": 1
        },
        "metallicFactor": 0.0
      }
    }
  ],
  "meshes": [
    {
      "name": "Object_0",
      "primitives": [
        {
          "attributes": {
            "NORMAL": 1,
            "POSITION": 0,
            "TEXCOORD_0": 2
          },
          "indices": 3,
          "material": 0,
          "mode": 4
        }
      ]
    },
    {
      "name": "Object_1",
      "primitives": [
        {
          "attributes": {
            "NORMAL": 5,
            "POSITION": 4,
            "TEXCOORD_0": 6
          },
          "indices": 7,
          "material": 1,
          "mode": 4
        }
      ]
    }
  ],
  "nodes": [
    {
      "children": [
        1
      ],
      "matrix": [
        1.0,
        0.0,
        0.0,
        0.0,
        0.0,
        2.220446049250313e-16,
        -1.0,
        0.0,
        0.0,
        1.0,
        2.220446049250313e-16,
        0.0,
        0.0,
        0.0,
        0.0,
        1.0
      ],
      "name": "Sketchfab_model"
    },
    {
      "children": [
        2,
        3
      ],
      "name": "untitled.obj.cleaner.materialmerger.gles"
    },
    {
      "mesh": 0,
      "name": "Object_2"
    },
    {
      "mesh": 1,
      "name": "Object_3"
    }
  ],
  "samplers": [
    {
      "magFilter": 9729,
      "minFilter": 9987,
      "wrapS": 10497,
      "wrapT": 10497
    }
  ],
  "scene": 0,
  "scenes": [
    {
      "name": "Sketchfab_Scene",
      "nodes": [
        0
      ]
    }
  ],
  "textures": [
    {
      "sampler": 0,
      "source": 0
    },
    {
      "sampler": 0,
      "source": 1
    }
  ]
}
